<svg id="svg" version="1.1" xmlns="http://www.w3.org/2000/svg" xmlns:xlink="http://www.w3.org/1999/xlink" width="100" height="100" viewBox="0, 0, 400,400">
<g id="svgg">
<path id="path0" d="M149.876 79.758 C 122.444 112.677,100.000 139.751,100.000 139.923 C 100.000 140.094,117.930 140.234,139.844 140.234 L 179.688 140.234 179.688 220.117 L 179.688 300.000 200.000 300.000 L 220.313 300.000 220.313 220.117 L 220.313 140.234 260.156 140.234 C 282.070 140.234,300.000 140.094,300.000 139.922 C 300.000 139.524,200.554 20.172,200.095 20.019 C 199.906 19.956,177.308 46.838,149.876 79.758 M20.014 293.457 L 20.124 347.070 20.983 350.000 C 25.415 365.117,35.979 375.451,50.781 379.151 C 53.619 379.860,58.284 379.883,200.195 379.883 L 346.680 379.883 349.814 379.018 C 364.588 374.942,374.672 364.918,379.004 350.000 L 379.855 347.070 379.976 293.457 L 380.097 239.844 359.970 239.844 L 339.844 239.844 339.844 289.844 L 339.844 339.844 200.000 339.844 L 60.156 339.844 60.156 289.844 L 60.156 239.844 40.030 239.844 L 19.903 239.844 20.014 293.457 " stroke="none" fill="#aaaaaa" fill-rule="evenodd"></path>
</g>
</svg>