<?xml version="1.0" standalone="no"?>
<!DOCTYPE svg PUBLIC "-//W3C//DTD SVG 20010904//EN" "http://www.w3.org/TR/2001/REC-SVG-20010904/DTD/svg10.dtd">
<svg version="1.0" xmlns="http://www.w3.org/2000/svg" width="1200.000000pt" height="1200.000000pt" viewBox="0 0 1200.000000 1200.000000" preserveAspectRatio="xMidYMid meet">

    <g transform="translate(0.000000,1200.000000) scale(0.100000,-0.100000)" fill="#ffffff" stroke="none">
        <path d="M5400 9000 l0 -2400 -1200 0 -1200 0 1496 -1795 c823 -987 1499
-1795 1504 -1795 5 0 681 808 1504 1795 l1496 1795 -1200 0 -1200 0 0 2400 0
2400 -600 0 -600 0 0 -2400z" />
        <path d="M603 3213 c3 -1579 3 -1589 24 -1673 120 -481 479 -826 958 -921 59
-12 752 -14 4420 -14 4207 0 4353 1 4435 19 420 92 762 393 894 788 64 191 60
57 63 1801 l3 1587 -600 0 -600 0 0 -1500 0 -1500 -4200 0 -4200 0 0 1500 0
1500 -600 0 -600 0 3 -1587z" />
    </g>
</svg>